<svg xmlns="http://www.w3.org/2000/svg" viewBox="0 0 800 1000" width="800" height="1000" role="img" aria-label="Placeholder product image"><defs><pattern id="dindigo" width="46" height="46" patternUnits="userSpaceOnUse"><rect width="46" height="46" fill="#2b3a6b"/>
      <path d="M23 8c4 5 4 9 0 14-4-5-4-9 0-14zM23 26c4 5 4 9 0 14-4-5-4-9 0-14z" fill="#f1e6d2" opacity=".8"/><circle cx="2" cy="23" r="2" fill="#f1e6d2" opacity=".6"/><circle cx="44" cy="23" r="2" fill="#f1e6d2" opacity=".6"/></pattern></defs><rect width="800" height="1000" fill="url(#dindigo)" transform="scale(2.4)" style="transform-origin:0 0"/>
       <rect y="700" width="800" height="300" fill="#d9a441"/><path d="M0 740H800M0 800H800M0 960H800" stroke="#f1e6d2" stroke-width="5" opacity=".7"/>
       <circle cx="40" cy="880" r="14" fill="#f1e6d2" opacity=".85"/><circle cx="120" cy="880" r="14" fill="#f1e6d2" opacity=".85"/><circle cx="200" cy="880" r="14" fill="#f1e6d2" opacity=".85"/><circle cx="280" cy="880" r="14" fill="#f1e6d2" opacity=".85"/><circle cx="360" cy="880" r="14" fill="#f1e6d2" opacity=".85"/><circle cx="440" cy="880" r="14" fill="#f1e6d2" opacity=".85"/><circle cx="520" cy="880" r="14" fill="#f1e6d2" opacity=".85"/><circle cx="600" cy="880" r="14" fill="#f1e6d2" opacity=".85"/><circle cx="680" cy="880" r="14" fill="#f1e6d2" opacity=".85"/><circle cx="760" cy="880" r="14" fill="#f1e6d2" opacity=".85"/>
  <g font-family="Arial, Helvetica, sans-serif"><rect x="496" y="42" width="260" height="30" rx="2" fill="#000" opacity=".55"/>
  <text x="626" y="62" text-anchor="middle" font-size="12" letter-spacing="2.2" fill="#fff">PHOTO PLACEHOLDER</text></g>
  <text x="44" y="950" font-family="Georgia, serif" font-style="italic" font-size="44" fill="#1f4a47" opacity=".75">Shasha</text></svg>